<?xml version="1.0" encoding="UTF-8"?>
<svg xmlns="http://www.w3.org/2000/svg" viewBox="0 0 1000 640" role="img">
  <rect width="1000" height="640" fill="#09090b"/>
  <line x1="40" y1="0" x2="40" y2="640" stroke="#1c1c1f"/>
  <line x1="80" y1="0" x2="80" y2="640" stroke="#1c1c1f"/>
  <line x1="120" y1="0" x2="120" y2="640" stroke="#1c1c1f"/>
  <line x1="160" y1="0" x2="160" y2="640" stroke="#1c1c1f"/>
  <line x1="200" y1="0" x2="200" y2="640" stroke="#1c1c1f"/>
  <line x1="240" y1="0" x2="240" y2="640" stroke="#1c1c1f"/>
  <line x1="280" y1="0" x2="280" y2="640" stroke="#1c1c1f"/>
  <line x1="320" y1="0" x2="320" y2="640" stroke="#1c1c1f"/>
  <line x1="360" y1="0" x2="360" y2="640" stroke="#1c1c1f"/>
  <line x1="400" y1="0" x2="400" y2="640" stroke="#1c1c1f"/>
  <line x1="440" y1="0" x2="440" y2="640" stroke="#1c1c1f"/>
  <line x1="480" y1="0" x2="480" y2="640" stroke="#1c1c1f"/>
  <line x1="520" y1="0" x2="520" y2="640" stroke="#1c1c1f"/>
  <line x1="560" y1="0" x2="560" y2="640" stroke="#1c1c1f"/>
  <line x1="600" y1="0" x2="600" y2="640" stroke="#1c1c1f"/>
  <line x1="640" y1="0" x2="640" y2="640" stroke="#1c1c1f"/>
  <line x1="680" y1="0" x2="680" y2="640" stroke="#1c1c1f"/>
  <line x1="720" y1="0" x2="720" y2="640" stroke="#1c1c1f"/>
  <line x1="760" y1="0" x2="760" y2="640" stroke="#1c1c1f"/>
  <line x1="800" y1="0" x2="800" y2="640" stroke="#1c1c1f"/>
  <line x1="840" y1="0" x2="840" y2="640" stroke="#1c1c1f"/>
  <line x1="880" y1="0" x2="880" y2="640" stroke="#1c1c1f"/>
  <line x1="920" y1="0" x2="920" y2="640" stroke="#1c1c1f"/>
  <line x1="960" y1="0" x2="960" y2="640" stroke="#1c1c1f"/>
  <line x1="0" y1="40" x2="1000" y2="40" stroke="#1c1c1f"/>
  <line x1="0" y1="80" x2="1000" y2="80" stroke="#1c1c1f"/>
  <line x1="0" y1="120" x2="1000" y2="120" stroke="#1c1c1f"/>
  <line x1="0" y1="160" x2="1000" y2="160" stroke="#1c1c1f"/>
  <line x1="0" y1="200" x2="1000" y2="200" stroke="#1c1c1f"/>
  <line x1="0" y1="240" x2="1000" y2="240" stroke="#1c1c1f"/>
  <line x1="0" y1="280" x2="1000" y2="280" stroke="#1c1c1f"/>
  <line x1="0" y1="320" x2="1000" y2="320" stroke="#1c1c1f"/>
  <line x1="0" y1="360" x2="1000" y2="360" stroke="#1c1c1f"/>
  <line x1="0" y1="400" x2="1000" y2="400" stroke="#1c1c1f"/>
  <line x1="0" y1="440" x2="1000" y2="440" stroke="#1c1c1f"/>
  <line x1="0" y1="480" x2="1000" y2="480" stroke="#1c1c1f"/>
  <line x1="0" y1="520" x2="1000" y2="520" stroke="#1c1c1f"/>
  <line x1="0" y1="560" x2="1000" y2="560" stroke="#1c1c1f"/>
  <line x1="0" y1="600" x2="1000" y2="600" stroke="#1c1c1f"/>
  <rect x="24" y="24" width="952" height="592" fill="none" stroke="#3f3f46" stroke-width="2"/>
  <rect x="24" y="292" width="952" height="56" fill="#111113" stroke="#3f3f46"/>
  <text x="40" y="52" fill="#71717a" font-size="14" font-family="ui-sans-serif, system-ui">Main Building · Floor 4</text>
  <text x="40" y="324" fill="#52525b" font-size="12" font-family="ui-sans-serif, system-ui" letter-spacing="2">CORRIDOR</text>
</svg>
